<svg xmlns:dc="http://purl.org/dc/elements/1.1/" xmlns:cc="http://creativecommons.org/ns#" xmlns:rdf="http://www.w3.org/1999/02/22-rdf-syntax-ns#" xmlns:svg="http://www.w3.org/2000/svg" xmlns="http://www.w3.org/2000/svg" xmlns:sodipodi="http://sodipodi.sourceforge.net/DTD/sodipodi-0.dtd" xmlns:inkscape="http://www.inkscape.org/namespaces/inkscape" version="1.1" x="0px" y="0px" viewBox="0 0 100 125"><g transform="translate(0,-952.36218)"><path fill="#ffffff" style="font-size:medium;font-style:normal;font-variant:normal;font-weight:normal;font-stretch:normal;text-indent:0;text-align:start;text-decoration:none;line-height:normal;letter-spacing:normal;word-spacing:normal;text-transform:none;direction:ltr;block-progression:tb;writing-mode:lr-tb;text-anchor:start;baseline-shift:baseline;opacity:1;color:#ffffff;fill:#ffffff;fill-opacity:1;stroke:none;stroke-width:8.02119732ffffff060;marker:none;visibility:visible;display:inline;overflow:visible;enable-background:accumulate;font-family:Sans;-inkscape-font-specification:Sans" d="M 50 6 C 25.72316 6 6 25.72317 6 50 C 6 74.2768 25.72316 94 50 94 C 74.276839 94 94 74.2768 94 50 C 94 25.72317 74.276839 6 50 6 z M 50 10 C 72.115077 10 90 27.88493 90 50 C 90 72.1151 72.115077 90 50 90 C 27.884922 90 10 72.1151 10 50 C 10 27.88493 27.884922 10 50 10 z M 49.78125 17.96875 A 2.0002 2.0002 0 0 0 48 20 L 48 50 A 2.0002 2.0002 0 0 0 50 52 L 74 52 A 2.0002 2.0002 0 1 0 74 48 L 52 48 L 52 20 A 2.0002 2.0002 0 0 0 49.78125 17.96875 z " transform="translate(0,952.36218)"/></g></svg>