<svg xmlns="http://www.w3.org/2000/svg" xmlns:xlink="http://www.w3.org/1999/xlink" version="1.1" x="0px" y="0px" viewBox="0 0 100 125" enable-background="new 0 0 100 100" xml:space="preserve"><path fill="#ffffff" d="M79.2,62.5V20.8c0-2.5-3.7-8.3-8.3-8.3H57.2C55.8,10,53.1,8.3,50,8.3s-5.8,1.7-7.2,4.2H29.2  c-4.6,0-8.3,5.8-8.3,8.3v41.7c0,4.6,3.7,8.3,8.3,8.3h41.7C75.4,70.8,79.2,67.1,79.2,62.5z M50,12.5c2.3,0,4.2,1.9,4.2,4.2  c0,2.3-1.9,4.2-4.2,4.2s-4.2-1.9-4.2-4.2C45.8,14.4,47.7,12.5,50,12.5z M33.3,62.5c-2.3,0-4.2-1.9-4.2-4.2c0-2.3,1.9-4.2,4.2-4.2  c2.3,0,4.2,1.9,4.2,4.2C37.5,60.6,35.6,62.5,33.3,62.5z M66.7,62.5c-2.3,0-4.2-1.9-4.2-4.2c0-2.3,1.9-4.2,4.2-4.2s4.2,1.9,4.2,4.2  C70.8,60.6,69,62.5,66.7,62.5z M70.8,45.8H29.2V25h41.7V45.8z"/><polygon fill="#ffffff" points="23.4,91.7 32.2,91.7 37.7,75 28.9,75 "/><polygon fill="#ffffff" points="67.8,91.7 76.6,91.7 71.1,75 62.3,75 "/></svg>