<svg xmlns="http://www.w3.org/2000/svg" viewBox="0 0 100 125"><path fill="#fff" style="text-indent:0;text-align:start;line-height:normal;text-transform:none;block-progression:tb;marker:none;-inkscape-font-specification:Sans" d="M50 6C25.723 6 6 25.723 6 50s19.723 44 44 44 44-19.723 44-44S74.277 6 50 6zm0 4c22.115 0 40 17.885 40 40S72.115 90 50 90 10 72.115 10 50s17.885-40 40-40zm-.219 7.969A2 2 0 0 0 48 20v30a2 2 0 0 0 2 2h24a2 2 0 1 0 0-4H52V20a2 2 0 0 0-2.219-2.031z" font-weight="400" color="#fff" overflow="visible" font-family="Sans"/></svg>